<?xml version="1.0" encoding="UTF-8" standalone="no"?>
<!DOCTYPE svg PUBLIC "-//W3C//DTD SVG 1.1//EN"
 "http://www.w3.org/Graphics/SVG/1.1/DTD/svg11.dtd">
<!-- Generated by graphviz version 2.42.4 (0)
 -->
<!-- Title: GoalMode Pages: 1 -->
<svg width="660pt" height="660pt"
 viewBox="0.00 0.00 659.61 660.00" xmlns="http://www.w3.org/2000/svg" xmlns:xlink="http://www.w3.org/1999/xlink">
<g id="graph0" class="graph" transform="scale(1 1) rotate(0) translate(18 642)">
<title>GoalMode</title>
<polygon fill="white" stroke="transparent" points="-18,18 -18,-642 641.61,-642 641.61,18 -18,18"/>
<!-- repo -->
<g id="node1" class="node">
<title>repo</title>
<path fill="none" stroke="#1f1f1f" d="M526.61,-624C526.61,-624 376.61,-624 376.61,-624 370.61,-624 364.61,-618 364.61,-612 364.61,-612 364.61,-600 364.61,-600 364.61,-594 370.61,-588 376.61,-588 376.61,-588 526.61,-588 526.61,-588 532.61,-588 538.61,-594 538.61,-600 538.61,-600 538.61,-612 538.61,-612 538.61,-618 532.61,-624 526.61,-624"/>
<text text-anchor="middle" x="451.61" y="-603.2" font-family="Arial" font-size="11.00">Repository + approved blueprint</text>
</g>
<!-- plan -->
<g id="node2" class="node">
<title>plan</title>
<path fill="none" stroke="#1f1f1f" d="M538.61,-555C538.61,-555 364.61,-555 364.61,-555 358.61,-555 352.61,-549 352.61,-543 352.61,-543 352.61,-531 352.61,-531 352.61,-525 358.61,-519 364.61,-519 364.61,-519 538.61,-519 538.61,-519 544.61,-519 550.61,-525 550.61,-531 550.61,-531 550.61,-543 550.61,-543 550.61,-549 544.61,-555 538.61,-555"/>
<text text-anchor="middle" x="451.61" y="-540.2" font-family="Arial" font-size="11.00">/plan</text>
<text text-anchor="middle" x="451.61" y="-528.2" font-family="Arial" font-size="11.00">Inspect, clarify, propose file&#45;level plan</text>
</g>
<!-- repo&#45;&gt;plan -->
<g id="edge1" class="edge">
<title>repo&#45;&gt;plan</title>
<path fill="none" stroke="#333333" d="M451.61,-587.75C451.61,-581 451.61,-573.09 451.61,-565.59"/>
<polygon fill="#333333" stroke="#333333" points="455.11,-565.43 451.61,-555.43 448.11,-565.43 455.11,-565.43"/>
</g>
<!-- approve -->
<g id="node3" class="node">
<title>approve</title>
<path fill="none" stroke="#1f1f1f" d="M439.84,-474.65C439.84,-474.65 373.13,-461.35 373.13,-461.35 367.24,-460.17 367.24,-457.83 373.13,-456.65 373.13,-456.65 439.84,-443.35 439.84,-443.35 445.73,-442.17 457.49,-442.17 463.38,-443.35 463.38,-443.35 530.09,-456.65 530.09,-456.65 535.98,-457.83 535.98,-460.17 530.09,-461.35 530.09,-461.35 463.38,-474.65 463.38,-474.65 457.49,-475.83 445.73,-475.83 439.84,-474.65"/>
<text text-anchor="middle" x="451.61" y="-456.2" font-family="Arial" font-size="11.00">Plan accepted?</text>
</g>
<!-- plan&#45;&gt;approve -->
<g id="edge2" class="edge">
<title>plan&#45;&gt;approve</title>
<path fill="none" stroke="#333333" d="M449.14,-518.91C448.51,-513.8 447.92,-508.18 447.61,-503 447.3,-497.85 447.44,-492.35 447.82,-487.08"/>
<polygon fill="#333333" stroke="#333333" points="451.35,-487.02 448.86,-476.73 444.38,-486.33 451.35,-487.02"/>
</g>
<!-- approve&#45;&gt;plan -->
<g id="edge3" class="edge">
<title>approve&#45;&gt;plan</title>
<path fill="none" stroke="#333333" d="M451.61,-477.18C451.61,-486.4 451.61,-497.98 451.61,-508.43"/>
<polygon fill="#333333" stroke="#333333" points="448.11,-508.75 451.61,-518.75 455.11,-508.75 448.11,-508.75"/>
<text text-anchor="middle" x="476.11" y="-495.8" font-family="Arial" font-size="9.00">No — refine</text>
</g>
<!-- goal -->
<g id="node4" class="node">
<title>goal</title>
<path fill="none" stroke="#1f1f1f" d="M535.61,-399C535.61,-399 367.61,-399 367.61,-399 361.61,-399 355.61,-393 355.61,-387 355.61,-387 355.61,-375 355.61,-375 355.61,-369 361.61,-363 367.61,-363 367.61,-363 535.61,-363 535.61,-363 541.61,-363 547.61,-369 547.61,-375 547.61,-375 547.61,-387 547.61,-387 547.61,-393 541.61,-399 535.61,-399"/>
<text text-anchor="middle" x="451.61" y="-384.2" font-family="Arial" font-size="11.00">/goal</text>
<text text-anchor="middle" x="451.61" y="-372.2" font-family="Arial" font-size="11.00">Outcome + constraints + verification</text>
</g>
<!-- approve&#45;&gt;goal -->
<g id="edge4" class="edge">
<title>approve&#45;&gt;goal</title>
<path fill="none" stroke="#333333" d="M451.61,-440.75C451.61,-431.52 451.61,-419.93 451.61,-409.49"/>
<polygon fill="#333333" stroke="#333333" points="455.11,-409.18 451.61,-399.18 448.11,-409.18 455.11,-409.18"/>
<text text-anchor="middle" x="459.61" y="-417.8" font-family="Arial" font-size="9.00">Yes</text>
</g>
<!-- work -->
<g id="node5" class="node">
<title>work</title>
<path fill="none" stroke="#1f1f1f" d="M346.61,-321C346.61,-321 100.61,-321 100.61,-321 94.61,-321 88.61,-315 88.61,-309 88.61,-309 88.61,-297 88.61,-297 88.61,-291 94.61,-285 100.61,-285 100.61,-285 346.61,-285 346.61,-285 352.61,-285 358.61,-291 358.61,-297 358.61,-297 358.61,-309 358.61,-309 358.61,-315 352.61,-321 346.61,-321"/>
<text text-anchor="middle" x="223.61" y="-300.2" font-family="Arial" font-size="11.00">Inspect → Implement → Test → Verify → Document</text>
</g>
<!-- goal&#45;&gt;work -->
<g id="edge5" class="edge">
<title>goal&#45;&gt;work</title>
<path fill="none" stroke="#333333" d="M400.44,-362.94C366.24,-351.54 321.06,-336.48 284.93,-324.44"/>
<polygon fill="#333333" stroke="#333333" points="285.59,-320.97 275,-321.13 283.38,-327.61 285.59,-320.97"/>
</g>
<!-- side -->
<g id="node11" class="node">
<title>side</title>
<path fill="none" stroke="#1f1f1f" stroke-dasharray="5,2" d="M611.61,-321C611.61,-321 395.61,-321 395.61,-321 389.61,-321 383.61,-315 383.61,-309 383.61,-309 383.61,-297 383.61,-297 383.61,-291 389.61,-285 395.61,-285 395.61,-285 611.61,-285 611.61,-285 617.61,-285 623.61,-291 623.61,-297 623.61,-297 623.61,-309 623.61,-309 623.61,-315 617.61,-321 611.61,-321"/>
<text text-anchor="middle" x="503.61" y="-306.2" font-family="Arial" font-size="11.00">/side</text>
<text text-anchor="middle" x="503.61" y="-294.2" font-family="Arial" font-size="11.00">Status or explanation without interrupting goal</text>
</g>
<!-- goal&#45;&gt;side -->
<g id="edge12" class="edge">
<title>goal&#45;&gt;side</title>
<path fill="none" stroke="#333333" stroke-dasharray="5,2" d="M447.32,-362.7C446.21,-354.44 446.33,-344.7 450.61,-337 452.48,-333.63 454.86,-330.55 457.56,-327.76"/>
<polygon fill="#333333" stroke="#333333" points="460.09,-330.21 465.37,-321.02 455.51,-324.91 460.09,-330.21"/>
<text text-anchor="middle" x="467.61" y="-339.8" font-family="Arial" font-size="9.00">optional</text>
</g>
<!-- gate -->
<g id="node6" class="node">
<title>gate</title>
<path fill="none" stroke="#1f1f1f" d="M124.71,-250.43C124.71,-250.43 11.79,-235.57 11.79,-235.57 5.84,-234.78 5.84,-233.22 11.79,-232.43 11.79,-232.43 124.71,-217.57 124.71,-217.57 130.66,-216.78 142.56,-216.78 148.51,-217.57 148.51,-217.57 261.43,-232.43 261.43,-232.43 267.38,-233.22 267.38,-234.78 261.43,-235.57 261.43,-235.57 148.51,-250.43 148.51,-250.43 142.56,-251.22 130.66,-251.22 124.71,-250.43"/>
<text text-anchor="middle" x="136.61" y="-231.2" font-family="Arial" font-size="11.00">Acceptance gate passes?</text>
</g>
<!-- work&#45;&gt;gate -->
<g id="edge6" class="edge">
<title>work&#45;&gt;gate</title>
<path fill="none" stroke="#333333" d="M201.21,-284.75C189.75,-275.93 175.72,-265.12 163.67,-255.84"/>
<polygon fill="#333333" stroke="#333333" points="165.75,-253.03 155.7,-249.7 161.48,-258.57 165.75,-253.03"/>
</g>
<!-- steer -->
<g id="node7" class="node">
<title>steer</title>
<path fill="none" stroke="#1f1f1f" d="M373.11,-174C373.11,-174 246.11,-174 246.11,-174 240.11,-174 234.11,-168 234.11,-162 234.11,-162 234.11,-150 234.11,-150 234.11,-144 240.11,-138 246.11,-138 246.11,-138 373.11,-138 373.11,-138 379.11,-138 385.11,-144 385.11,-150 385.11,-150 385.11,-162 385.11,-162 385.11,-168 379.11,-174 373.11,-174"/>
<text text-anchor="middle" x="309.61" y="-159.2" font-family="Arial" font-size="11.00">Continue in same goal chat</text>
<text text-anchor="middle" x="309.61" y="-147.2" font-family="Arial" font-size="11.00">Fix, steer, rerun tests</text>
</g>
<!-- gate&#45;&gt;steer -->
<g id="edge7" class="edge">
<title>gate&#45;&gt;steer</title>
<path fill="none" stroke="#333333" d="M166.74,-219.76C192.78,-208.33 230.87,-191.59 261.18,-178.28"/>
<polygon fill="#333333" stroke="#333333" points="262.97,-181.31 270.72,-174.09 260.16,-174.9 262.97,-181.31"/>
<text text-anchor="middle" x="240.11" y="-192.8" font-family="Arial" font-size="9.00">No</text>
</g>
<!-- review -->
<g id="node8" class="node">
<title>review</title>
<path fill="none" stroke="#1f1f1f" d="M194.11,-174C194.11,-174 79.11,-174 79.11,-174 73.11,-174 67.11,-168 67.11,-162 67.11,-162 67.11,-150 67.11,-150 67.11,-144 73.11,-138 79.11,-138 79.11,-138 194.11,-138 194.11,-138 200.11,-138 206.11,-144 206.11,-150 206.11,-150 206.11,-162 206.11,-162 206.11,-168 200.11,-174 194.11,-174"/>
<text text-anchor="middle" x="136.61" y="-159.2" font-family="Arial" font-size="11.00">/review</text>
<text text-anchor="middle" x="136.61" y="-147.2" font-family="Arial" font-size="11.00">Inspect diff and evidence</text>
</g>
<!-- gate&#45;&gt;review -->
<g id="edge9" class="edge">
<title>gate&#45;&gt;review</title>
<path fill="none" stroke="#333333" d="M136.61,-215.75C136.61,-206.52 136.61,-194.93 136.61,-184.49"/>
<polygon fill="#333333" stroke="#333333" points="140.11,-184.18 136.61,-174.18 133.11,-184.18 140.11,-184.18"/>
<text text-anchor="middle" x="144.61" y="-192.8" font-family="Arial" font-size="9.00">Yes</text>
</g>
<!-- steer&#45;&gt;work -->
<g id="edge8" class="edge">
<title>steer&#45;&gt;work</title>
<path fill="none" stroke="#333333" d="M308.55,-174.07C306.61,-194.15 301.12,-227.79 285.61,-252 279.09,-262.18 269.8,-271.23 260.38,-278.75"/>
<polygon fill="#333333" stroke="#333333" points="258.03,-276.13 252.14,-284.94 262.24,-281.73 258.03,-276.13"/>
</g>
<!-- merge -->
<g id="node9" class="node">
<title>merge</title>
<path fill="none" stroke="#1f1f1f" d="M186.11,-105C186.11,-105 87.11,-105 87.11,-105 81.11,-105 75.11,-99 75.11,-93 75.11,-93 75.11,-81 75.11,-81 75.11,-75 81.11,-69 87.11,-69 87.11,-69 186.11,-69 186.11,-69 192.11,-69 198.11,-75 198.11,-81 198.11,-81 198.11,-93 198.11,-93 198.11,-99 192.11,-105 186.11,-105"/>
<text text-anchor="middle" x="136.61" y="-84.2" font-family="Arial" font-size="11.00">Commit / PR / Merge</text>
</g>
<!-- review&#45;&gt;merge -->
<g id="edge10" class="edge">
<title>review&#45;&gt;merge</title>
<path fill="none" stroke="#333333" d="M136.61,-137.75C136.61,-131 136.61,-123.09 136.61,-115.59"/>
<polygon fill="#333333" stroke="#333333" points="140.11,-115.43 136.61,-105.43 133.11,-115.43 140.11,-115.43"/>
</g>
<!-- next -->
<g id="node10" class="node">
<title>next</title>
<path fill="none" stroke="#1f1f1f" d="M232.11,-36C232.11,-36 41.11,-36 41.11,-36 35.11,-36 29.11,-30 29.11,-24 29.11,-24 29.11,-12 29.11,-12 29.11,-6 35.11,0 41.11,0 41.11,0 232.11,0 232.11,0 238.11,0 244.11,-6 244.11,-12 244.11,-12 244.11,-24 244.11,-24 244.11,-30 238.11,-36 232.11,-36"/>
<text text-anchor="middle" x="136.61" y="-15.2" font-family="Arial" font-size="11.00">New goal in new chat + branch/worktree</text>
</g>
<!-- merge&#45;&gt;next -->
<g id="edge11" class="edge">
<title>merge&#45;&gt;next</title>
<path fill="none" stroke="#333333" d="M136.61,-68.75C136.61,-62 136.61,-54.09 136.61,-46.59"/>
<polygon fill="#333333" stroke="#333333" points="140.11,-46.43 136.61,-36.43 133.11,-46.43 140.11,-46.43"/>
</g>
<!-- side&#45;&gt;goal -->
<g id="edge13" class="edge">
<title>side&#45;&gt;goal</title>
<path fill="none" stroke="#333333" stroke-dasharray="5,2" d="M498.75,-321.18C495.95,-329.41 491.92,-339.16 486.61,-347 484.69,-349.83 482.49,-352.61 480.14,-355.27"/>
<polygon fill="#333333" stroke="#333333" points="477.25,-353.22 472.81,-362.84 482.28,-358.09 477.25,-353.22"/>
</g>
</g>
</svg>
